# Blender v2.74 (sub 0) OBJ File: 'chair.blend'
# www.blender.org
o Cube
v 4.149936 0.872202 -2.331584
v 4.149936 0.872202 -0.188212
v -1.850065 0.872202 -0.188213
v -1.850064 0.872202 -2.331585
v 4.149937 1.125779 -2.331583
v 4.149934 1.125779 -0.188210
v -1.850065 1.125779 -0.188213
v -1.850064 1.125779 -2.331584
vt 0.962577 0.841503
vt 0.162756 0.841504
vt 0.162756 0.119493
vt 0.168090 0.859413
vt 0.168089 0.107553
vt 0.962577 0.107552
vt 0.957281 0.587282
vt 0.509385 0.587282
vt 0.509386 0.400051
vt 0.957302 0.590166
vt 0.029364 0.590166
vt 0.029364 0.376151
vt 0.506718 0.388115
vt 0.959948 0.388111
vt 0.959948 0.557429
vt 0.000000 0.000000
vt 0.962577 0.119492
vt 0.962577 0.859412
vt 0.957282 0.400053
vt 0.957303 0.376150
vt 0.506718 0.557434
vn 0.000000 -1.000000 0.000000
vn 0.000000 1.000000 0.000000
vn 1.000000 0.000000 0.000000
vn -0.000000 0.000000 1.000000
vn -1.000000 -0.000000 -0.000000
vn 0.000000 0.000000 -1.000000
s off
f 2/1/1 3/2/1 4/3/1
f 8/4/2 7/5/2 6/6/2
f 5/7/3 6/8/3 2/9/3
f 6/10/4 7/11/4 3/12/4
f 7/13/5 8/14/5 4/15/5
f 1/16/6 4/16/6 8/16/6
f 1/17/1 2/1/1 4/3/1
f 5/18/2 8/4/2 6/6/2
f 1/19/3 5/7/3 2/9/3
f 2/20/4 6/10/4 3/12/4
f 3/21/5 7/13/5 4/15/5
f 5/16/6 1/16/6 8/16/6
o Cube.001
v 4.149936 2.889301 -2.703872
v 4.149936 0.764964 -2.418853
v -1.850065 0.764965 -2.418853
v -1.850064 2.889302 -2.703873
v 4.149937 2.923019 -2.452547
v 4.149934 0.798682 -2.167528
v -1.850065 0.798685 -2.167528
v -1.850064 2.923021 -2.452547
vt 0.959911 0.829563
vt 0.165423 0.829563
vt 0.165423 0.131433
vt 0.160090 0.835533
vt 0.160089 0.131433
vt 0.957243 0.131433
vt 0.949281 0.563401
vt 0.498718 0.563401
vt 0.498719 0.364231
vt 0.959969 0.560315
vt 0.120031 0.560315
vt 0.120031 0.370181
vt 0.472052 0.605195
vt 0.472052 0.388115
vt 0.957281 0.388111
vt 0.954636 0.584196
vt 0.037364 0.584195
vt 0.037364 0.376150
vt 0.959911 0.131433
vt 0.957244 0.835532
vt 0.949282 0.364232
vt 0.959969 0.370180
vt 0.957282 0.605190
vt 0.954636 0.376150
vn 0.000000 -0.133000 -0.991100
vn -0.000000 0.133000 0.991100
vn 1.000000 -0.000000 0.000000
vn -0.000000 -0.991100 0.133000
vn -1.000000 0.000000 -0.000000
vn 0.000000 0.991100 -0.133000
s off
f 10/22/7 11/23/7 12/24/7
f 16/25/8 15/26/8 14/27/8
f 13/28/9 14/29/9 10/30/9
f 14/31/10 15/32/10 11/33/10
f 11/34/11 15/35/11 16/36/11
f 9/37/12 12/38/12 16/39/12
f 9/40/7 10/22/7 12/24/7
f 13/41/8 16/25/8 14/27/8
f 9/42/9 13/28/9 10/30/9
f 10/43/10 14/31/10 11/33/10
f 12/44/11 11/34/11 16/36/11
f 13/45/12 9/37/12 16/39/12
o Cube.006
v 3.782570 -0.009396 -1.989608
v 3.782570 -0.009396 -1.554848
v 3.449553 -0.009396 -1.554849
v 3.449555 -0.009396 -1.989609
v 3.782572 0.859210 -1.989607
v 3.782568 0.859210 -1.554846
v 3.449553 0.859210 -1.554849
v 3.449554 0.859210 -1.989608
vt 0.770579 0.539062
vt 0.674755 0.539065
vt 0.674754 0.274714
vt 0.621421 0.352326
vt 0.720600 0.352326
vt 0.720598 0.611850
vt 0.671193 0.683511
vt 0.560071 0.683511
vt 0.560071 0.244848
vt 0.394072 0.755162
vt 0.290729 0.755162
vt 0.290729 0.280659
vt 0.527193 0.719332
vt 0.413405 0.719332
vt 0.413404 0.268727
vt 0.328064 0.268719
vt 0.426074 0.268719
vt 0.426075 0.737252
vt 0.770579 0.274714
vt 0.621423 0.611853
vt 0.671193 0.244847
vt 0.394073 0.280659
vt 0.527194 0.268727
vt 0.328062 0.737252
vn 0.000000 -1.000000 0.000000
vn 0.000000 1.000000 0.000000
vn 1.000000 0.000000 0.000000
vn -0.000000 0.000000 1.000000
vn -1.000000 -0.000000 -0.000000
vn 0.000000 0.000000 -1.000000
s off
f 17/46/13 18/47/13 19/48/13
f 21/49/14 24/50/14 23/51/14
f 21/52/15 22/53/15 18/54/15
f 22/55/16 23/56/16 19/57/16
f 23/58/17 24/59/17 20/60/17
f 17/61/18 20/62/18 24/63/18
f 20/64/13 17/46/13 19/48/13
f 22/65/14 21/49/14 23/51/14
f 17/66/15 21/52/15 18/54/15
f 18/67/16 22/55/16 19/57/16
f 19/68/17 23/58/17 20/60/17
f 21/69/18 17/61/18 24/63/18
o Cube.002_Cube.007
v -1.045351 -0.009396 -2.023127
v -1.045351 -0.009396 -1.588367
v -1.378367 -0.009396 -1.588367
v -1.378366 -0.009396 -2.023128
v -1.045349 0.859210 -2.023125
v -1.045353 0.859210 -1.588365
v -1.378368 0.859210 -1.588368
v -1.378367 0.859210 -2.023127
vt 0.770579 0.539062
vt 0.674755 0.539065
vt 0.674754 0.274714
vt 0.621421 0.352326
vt 0.720600 0.352326
vt 0.720598 0.611850
vt 0.671193 0.683511
vt 0.560071 0.683511
vt 0.560071 0.244848
vt 0.394072 0.755162
vt 0.290729 0.755162
vt 0.290729 0.280659
vt 0.527194 0.268727
vt 0.527193 0.719332
vt 0.413405 0.719332
vt 0.328064 0.268719
vt 0.426074 0.268719
vt 0.426075 0.737252
vt 0.770579 0.274714
vt 0.621423 0.611853
vt 0.671193 0.244847
vt 0.394073 0.280659
vt 0.413404 0.268727
vt 0.328062 0.737252
vn 0.000000 -1.000000 0.000000
vn 0.000000 1.000000 0.000000
vn 1.000000 0.000000 0.000000
vn -0.000000 0.000000 1.000000
vn -1.000000 -0.000000 -0.000000
vn 0.000000 0.000000 -1.000000
s off
f 25/70/19 26/71/19 27/72/19
f 29/73/20 32/74/20 31/75/20
f 29/76/21 30/77/21 26/78/21
f 30/79/22 31/80/22 27/81/22
f 27/82/23 31/83/23 32/84/23
f 25/85/24 28/86/24 32/87/24
f 28/88/19 25/70/19 27/72/19
f 30/89/20 29/73/20 31/75/20
f 25/90/21 29/76/21 26/78/21
f 26/91/22 30/79/22 27/81/22
f 28/92/23 27/82/23 32/84/23
f 29/93/24 25/85/24 32/87/24
o Cube.003_Cube.008
v -1.045351 -0.009396 -0.834182
v -1.045351 -0.009396 -0.399422
v -1.378367 -0.009396 -0.399423
v -1.378366 -0.009396 -0.834183
v -1.045349 0.859210 -0.834181
v -1.045353 0.859210 -0.399420
v -1.378368 0.859210 -0.399423
v -1.378367 0.859210 -0.834182
vt 0.770579 0.539062
vt 0.674755 0.539065
vt 0.674754 0.274714
vt 0.621421 0.352326
vt 0.720600 0.352326
vt 0.720598 0.611850
vt 0.671193 0.683511
vt 0.560071 0.683511
vt 0.560071 0.244848
vt 0.394072 0.755162
vt 0.290729 0.755162
vt 0.290729 0.280659
vt 0.527194 0.268727
vt 0.527193 0.719332
vt 0.413405 0.719332
vt 0.328064 0.268719
vt 0.426074 0.268719
vt 0.426075 0.737252
vt 0.770579 0.274714
vt 0.621423 0.611853
vt 0.671193 0.244847
vt 0.394073 0.280659
vt 0.413404 0.268727
vt 0.328062 0.737252
vn 0.000000 -1.000000 0.000000
vn 0.000000 1.000000 0.000000
vn 1.000000 0.000000 0.000000
vn -0.000000 0.000000 1.000000
vn -1.000000 -0.000000 -0.000000
vn 0.000000 0.000000 -1.000000
s off
f 33/94/25 34/95/25 35/96/25
f 37/97/26 40/98/26 39/99/26
f 37/100/27 38/101/27 34/102/27
f 38/103/28 39/104/28 35/105/28
f 35/106/29 39/107/29 40/108/29
f 33/109/30 36/110/30 40/111/30
f 36/112/25 33/94/25 35/96/25
f 38/113/26 37/97/26 39/99/26
f 33/114/27 37/100/27 34/102/27
f 34/115/28 38/103/28 35/105/28
f 36/116/29 35/106/29 40/108/29
f 37/117/30 33/109/30 40/111/30
o Cube.004_Cube.009
v 3.782570 -0.009396 -0.834182
v 3.782570 -0.009396 -0.399422
v 3.449553 -0.009396 -0.399423
v 3.449555 -0.009396 -0.834183
v 3.782572 0.859210 -0.834181
v 3.782568 0.859210 -0.399420
v 3.449553 0.859210 -0.399423
v 3.449554 0.859210 -0.834182
vt 0.770579 0.539062
vt 0.674755 0.539065
vt 0.674754 0.274714
vt 0.621421 0.352326
vt 0.720600 0.352326
vt 0.720598 0.611850
vt 0.671193 0.683511
vt 0.560071 0.683511
vt 0.560071 0.244848
vt 0.394072 0.755162
vt 0.290729 0.755162
vt 0.290729 0.280659
vt 0.527194 0.268727
vt 0.527193 0.719332
vt 0.413405 0.719332
vt 0.328064 0.268719
vt 0.426074 0.268719
vt 0.426075 0.737252
vt 0.770579 0.274714
vt 0.621423 0.611853
vt 0.671193 0.244847
vt 0.394073 0.280659
vt 0.413404 0.268727
vt 0.328062 0.737252
vn 0.000000 -1.000000 0.000000
vn 0.000000 1.000000 0.000000
vn 1.000000 0.000000 0.000000
vn -0.000000 0.000000 1.000000
vn -1.000000 -0.000000 -0.000000
vn 0.000000 0.000000 -1.000000
s off
f 41/118/31 42/119/31 43/120/31
f 45/121/32 48/122/32 47/123/32
f 45/124/33 46/125/33 42/126/33
f 46/127/34 47/128/34 43/129/34
f 43/130/35 47/131/35 48/132/35
f 41/133/36 44/134/36 48/135/36
f 44/136/31 41/118/31 43/120/31
f 46/137/32 45/121/32 47/123/32
f 41/138/33 45/124/33 42/126/33
f 42/139/34 46/127/34 43/129/34
f 44/140/35 43/130/35 48/132/35
f 45/141/36 41/133/36 48/135/36
